<?xml version="1.0" encoding="iso-8859-1"?>
<!-- Generator: Adobe Illustrator 14.0.0, SVG Export Plug-In . SVG Version: 6.00 Build 43363)  -->
<!DOCTYPE svg PUBLIC "-//W3C//DTD SVG 1.1//EN" "http://www.w3.org/Graphics/SVG/1.1/DTD/svg11.dtd">
<svg version="1.1" id="Calque_2" xmlns="http://www.w3.org/2000/svg" xmlns:xlink="http://www.w3.org/1999/xlink" x="0px" y="0px"
	 width="319.073px" height="319.074px" viewBox="0 0 319.073 319.074" style="enable-background:new 0 0 319.073 319.074;"
	 xml:space="preserve">
<path style="fill:#FFFFFF;" d="M294.398,19.366c2.933,0,5.31,2.377,5.31,5.31v269.722c0,2.932-2.377,5.31-5.31,5.31H24.675
	c-2.932,0-5.31-2.378-5.31-5.31V24.675c0-2.932,2.377-5.31,5.31-5.31H294.398 M294.398,10H24.675C16.583,10,10,16.583,10,24.675
	v269.722c0,8.092,6.583,14.675,14.675,14.675h269.723c8.091,0,14.674-6.583,14.674-14.675V24.675
	C309.072,16.583,302.489,10,294.398,10L294.398,10z"/>
</svg>
